<svg width="192" height="192" viewBox="0 0 192 192" xmlns="http://www.w3.org/2000/svg">
  <defs>
    <linearGradient id="grad1" x1="0%" y1="0%" x2="100%" y2="100%">
      <stop offset="0%" style="stop-color:#667eea;stop-opacity:1" />
      <stop offset="100%" style="stop-color:#764ba2;stop-opacity:1" />
    </linearGradient>
    <linearGradient id="accent1" x1="0%" y1="0%" x2="100%" y2="0%">
      <stop offset="0%" style="stop-color:#f093fb;stop-opacity:1" />
      <stop offset="100%" style="stop-color:#f5576c;stop-opacity:1" />
    </linearGradient>
    <linearGradient id="accent2" x1="0%" y1="0%" x2="100%" y2="0%">
      <stop offset="0%" style="stop-color:#4facfe;stop-opacity:1" />
      <stop offset="100%" style="stop-color:#00f2fe;stop-opacity:1" />
    </linearGradient>
  </defs>
  <rect width="192" height="192" fill="url(#grad1)" rx="32"/>
  
  <!-- Content cube/box icon -->
  <path d="M96 50 L140 75 L140 120 L96 145 L52 120 L52 75 Z" fill="none" stroke="white" stroke-width="4" opacity="0.3"/>
  <path d="M96 50 L140 75 L96 100 L52 75 Z" fill="url(#accent1)" opacity="0.8"/>
  <path d="M52 75 L52 120 L96 145 L96 100 Z" fill="url(#accent2)" opacity="0.8"/>
  <path d="M96 100 L96 145 L140 120 L140 75 Z" fill="white" opacity="0.9"/>
  
  <!-- Sparkle elements -->
  <circle cx="160" cy="60" r="4" fill="#f5576c"/>
  <circle cx="170" cy="80" r="3" fill="#00f2fe"/>
  <circle cx="35" cy="70" r="3" fill="#f093fb"/>
  <circle cx="25" cy="95" r="4" fill="#4facfe"/>
</svg>
